# xmcd
#
# Track frame offsets: 
#        150
#        16502
#        30918
#        43389
#        63772
#        85784
#        101373
#        119636
#        137272
#        149287
#        168116
#        183756
#
# Disc length: 2667 seconds
#
# Revision: 5
# Processed by: cddbd v1.5.2PL0 Copyright (c) Steve Scherf et al.
# Submitted via: ExactAudioCopyFreeDBPlugin 1.0
#
DISCID=880a690c
DTITLE=譚詠麟 - 反斗星
DYEAR=1979
DGENRE=Pop
TTITLE0=反斗星
TTITLE1=勁舞熱辣辣
TTITLE2=願妳接受
TTITLE3=唱一首好歌
TTITLE4=可會有明天
TTITLE5=愛在陽光空氣中
TTITLE6=孩兒
TTITLE7=不要嚕嗦
TTITLE8=玩得開心啲
TTITLE9=恩愛盡變
TTITLE10=星語
TTITLE11=個心立立亂
EXTD=YEAR: 1979
EXTT0=
EXTT1=
EXTT2=
EXTT3=
EXTT4=
EXTT5=
EXTT6=
EXTT7=
EXTT8=
EXTT9=
EXTT10=
EXTT11=
PLAYORDER=
